<svg width="20" height="20" viewBox="0 0 20 20" fill="none" xmlns="http://www.w3.org/2000/svg">
<g clip-path="url(#clip0_482_1464)">
<path d="M14.166 2.78357C15.4229 3.50928 16.4685 4.55067 17.1992 5.80465C17.9299 7.05863 18.3205 8.48171 18.3322 9.93302C18.3439 11.3843 17.9764 12.8135 17.266 14.0792C16.5557 15.3448 15.5271 16.4029 14.2821 17.1488C13.037 17.8948 11.6188 18.3026 10.1678 18.332C8.71671 18.3613 7.28314 18.0112 6.00898 17.3163C4.73482 16.6213 3.66424 15.6057 2.90324 14.3698C2.14223 13.134 1.71719 11.7208 1.67018 10.2702L1.66602 10.0002L1.67018 9.73024C1.71685 8.29106 2.13564 6.88854 2.88572 5.6594C3.63579 4.43026 4.69156 3.41645 5.95009 2.7168C7.20862 2.01716 8.62697 1.65557 10.0669 1.66727C11.5067 1.67897 12.919 2.06357 14.166 2.78357ZM9.99935 5.00024C9.79524 5.00026 9.59823 5.0752 9.44571 5.21083C9.29318 5.34646 9.19573 5.53336 9.17185 5.73607L9.16602 5.83357V10.0002L9.17352 10.1094C9.19252 10.254 9.24912 10.391 9.33768 10.5069L9.41018 10.5902L11.9102 13.0902L11.9885 13.1586C12.1347 13.272 12.3144 13.3335 12.4993 13.3335C12.6843 13.3335 12.864 13.272 13.0102 13.1586L13.0885 13.0894L13.1577 13.0111C13.2711 12.8649 13.3326 12.6852 13.3326 12.5002C13.3326 12.3153 13.2711 12.1355 13.1577 11.9894L13.0885 11.9111L10.8327 9.6544V5.83357L10.8268 5.73607C10.803 5.53336 10.7055 5.34646 10.553 5.21083C10.4005 5.0752 10.2035 5.00026 9.99935 5.00024Z" fill="#00629D"/>
</g>
<defs>
<clipPath id="clip0_482_1464">
<rect width="20" height="20" fill="white"/>
</clipPath>
</defs>
</svg>
