<svg width="20" height="20" viewBox="0 0 20 20" fill="none" xmlns="http://www.w3.org/2000/svg">
<path fill-rule="evenodd" clip-rule="evenodd" d="M4.16732 16.667H15.834C16.055 16.667 16.267 16.7548 16.4232 16.9111C16.5795 17.0673 16.6673 17.2793 16.6673 17.5003C16.6673 17.7213 16.5795 17.9333 16.4232 18.0896C16.267 18.2459 16.055 18.3337 15.834 18.3337H4.16732C3.9463 18.3337 3.73434 18.2459 3.57806 18.0896C3.42178 17.9333 3.33398 17.7213 3.33398 17.5003C3.33398 17.2793 3.42178 17.0673 3.57806 16.9111C3.73434 16.7548 3.9463 16.667 4.16732 16.667ZM3.33398 12.5003L11.6673 4.16699L14.1673 6.66699L5.83398 15.0003H3.33398V12.5003ZM12.5007 3.33366L14.1673 1.66699L16.6673 4.16699L14.9998 5.83449L12.5007 3.33366Z" fill="#00629D"/>
</svg>
