<svg width="20" height="20" viewBox="0 0 20 20" fill="none" xmlns="http://www.w3.org/2000/svg">
<path d="M16.25 13C15.3125 13.48 14.25 13.75 13.125 13.75C12.3125 13.75 11.5337 13.6088 10.81 13.35L9.0475 14.3C8.95629 14.3492 8.85427 14.375 8.75063 14.375C8.64698 14.375 8.54496 14.3492 8.45375 14.3L1.25 10.4212V16.25C1.25 16.913 1.51339 17.5489 1.98223 18.0178C2.45107 18.4866 3.08696 18.75 3.75 18.75H13.75C14.413 18.75 15.0489 18.4866 15.5178 18.0178C15.9866 17.5489 16.25 16.913 16.25 16.25V13ZM6.2775 6.25H3.75C3.08696 6.25 2.45107 6.51339 1.98223 6.98223C1.51339 7.45107 1.25 8.08696 1.25 8.75V9.00125L8.75 13.04L9.43 12.6737C8.36509 11.996 7.50751 11.0379 6.95138 9.90472C6.39526 8.77152 6.1621 7.50701 6.2775 6.25ZM7.5 6.875C7.5 7.61369 7.64549 8.34514 7.92818 9.02759C8.21086 9.71005 8.62519 10.3301 9.14752 10.8525C9.66985 11.3748 10.2899 11.7891 10.9724 12.0718C11.6549 12.3545 12.3863 12.5 13.125 12.5C13.8637 12.5 14.5951 12.3545 15.2776 12.0718C15.9601 11.7891 16.5801 11.3748 17.1025 10.8525C17.6248 10.3301 18.0391 9.71005 18.3218 9.02759C18.6045 8.34514 18.75 7.61369 18.75 6.875C18.75 5.38316 18.1574 3.95242 17.1025 2.89752C16.0476 1.84263 14.6168 1.25 13.125 1.25C11.6332 1.25 10.2024 1.84263 9.14752 2.89752C8.09263 3.95242 7.5 5.38316 7.5 6.875ZM14.245 3.62C14.3031 3.5618 14.372 3.51562 14.448 3.48411C14.5239 3.4526 14.6053 3.43638 14.6875 3.43638C14.7697 3.43638 14.8511 3.4526 14.927 3.48411C15.003 3.51562 15.0719 3.5618 15.13 3.62L17.3175 5.8075C17.4342 5.92427 17.5 6.08249 17.5005 6.24761C17.501 6.41273 17.4361 6.57132 17.32 6.68875L15.13 8.88C15.0126 8.99736 14.8535 9.06329 14.6875 9.06329C14.5215 9.06329 14.3624 8.99736 14.245 8.88C14.1276 8.76264 14.0617 8.60347 14.0617 8.4375C14.0617 8.27153 14.1276 8.11236 14.245 7.995L15.3663 6.875H13.4375C12.8573 6.875 12.3009 7.10547 11.8907 7.5157C11.4805 7.92594 11.25 8.48234 11.25 9.0625V9.375C11.25 9.54076 11.1842 9.69973 11.0669 9.81694C10.9497 9.93415 10.7908 10 10.625 10C10.4592 10 10.3003 9.93415 10.1831 9.81694C10.0658 9.69973 10 9.54076 10 9.375V9.0625C10 8.15082 10.3622 7.27648 11.0068 6.63182C11.6515 5.98716 12.5258 5.625 13.4375 5.625H15.3663L14.245 4.505C14.1868 4.44694 14.1406 4.37797 14.1091 4.30204C14.0776 4.22611 14.0614 4.14471 14.0614 4.0625C14.0614 3.98029 14.0776 3.89889 14.1091 3.82296C14.1406 3.74703 14.1868 3.67806 14.245 3.62Z" fill="#00629D"/>
</svg>
