<svg width="20" height="20" viewBox="0 0 20 20" fill="none" xmlns="http://www.w3.org/2000/svg">
<path d="M15.834 15.8333H2.50065V5.83333C2.50065 5.375 2.12565 5 1.66732 5C1.20898 5 0.833984 5.375 0.833984 5.83333V15.8333C0.833984 16.75 1.58398 17.5 2.50065 17.5H15.834C16.2923 17.5 16.6673 17.125 16.6673 16.6667C16.6673 16.2083 16.2923 15.8333 15.834 15.8333Z" fill="#00629D"/>
<path d="M17.4993 3.33366H11.666L10.491 2.15866C10.1743 1.84199 9.74935 1.66699 9.30768 1.66699H5.83268C4.91602 1.66699 4.17435 2.41699 4.17435 3.33366L4.16602 12.5003C4.16602 13.417 4.91602 14.167 5.83268 14.167H17.4993C18.416 14.167 19.166 13.417 19.166 12.5003V5.00033C19.166 4.08366 18.416 3.33366 17.4993 3.33366ZM14.9993 10.8337H8.33268C8.2553 10.8337 8.17945 10.8121 8.11363 10.7714C8.0478 10.7307 7.99461 10.6725 7.96 10.6033C7.9254 10.5341 7.91075 10.4566 7.9177 10.3796C7.92465 10.3025 7.95292 10.2289 7.99935 10.167L9.14935 8.64199C9.31602 8.41699 9.64935 8.41699 9.81602 8.64199L10.8327 10.0003L12.6827 7.52533C12.8493 7.30032 13.1827 7.30032 13.3493 7.52533L15.3327 10.167C15.3791 10.2289 15.4074 10.3025 15.4143 10.3796C15.4213 10.4566 15.4066 10.5341 15.372 10.6033C15.3374 10.6725 15.2842 10.7307 15.2184 10.7714C15.1526 10.8121 15.0767 10.8337 14.9993 10.8337Z" fill="#00629D"/>
</svg>
