<svg width="20" height="20" viewBox="0 0 20 20" fill="none" xmlns="http://www.w3.org/2000/svg">
<g clip-path="url(#clip0_482_1479)">
<path d="M9.99977 0.916016C4.98289 0.916016 0.916016 4.98289 0.916016 9.99977C0.916016 15.0166 4.98289 19.0835 9.99977 19.0835C15.0166 19.0835 19.0835 15.0166 19.0835 9.99977C19.0835 4.98289 15.0166 0.916016 9.99977 0.916016ZM10.7841 14.9248V16.2041H9.56039V14.9391C7.55227 14.6641 6.67289 13.0141 6.67289 13.0141L7.92289 11.9685C7.92289 11.9685 8.72101 13.3579 10.1648 13.3579C10.9623 13.3579 11.5673 12.931 11.5673 12.2016C11.5673 10.4966 6.97352 10.7035 6.97352 7.54039C6.97352 6.16539 8.06102 5.17477 9.55976 4.94039V3.66227H10.7835V4.94039C11.8285 5.07789 13.066 5.62789 13.066 6.81102V7.71852H11.4435V7.27852C11.4435 6.82477 10.8654 6.52227 10.2185 6.52227C9.39352 6.52227 8.78914 6.93477 8.78914 7.51227C8.78914 9.25852 13.3829 8.83226 13.3829 12.1466C13.3829 13.5091 12.3654 14.6904 10.7841 14.9248Z" fill="#00629D"/>
</g>
<defs>
<clipPath id="clip0_482_1479">
<rect width="20" height="20" fill="white"/>
</clipPath>
</defs>
</svg>
