<svg width="15" height="18" viewBox="0 0 15 18" fill="none" xmlns="http://www.w3.org/2000/svg">
<path d="M2.41732 0.666992C1.86478 0.666992 1.33488 0.886486 0.944179 1.27719C0.553478 1.66789 0.333984 2.19779 0.333984 2.75033V15.2503C0.333984 15.8029 0.553478 16.3328 0.944179 16.7235C1.33488 17.1142 1.86478 17.3337 2.41732 17.3337H13.459C13.6247 17.3337 13.7837 17.2678 13.9009 17.1506C14.0181 17.0334 14.084 16.8744 14.084 16.7087C14.084 16.5429 14.0181 16.3839 13.9009 16.2667C13.7837 16.1495 13.6247 16.0837 13.459 16.0837H2.41732C2.1963 16.0837 1.98434 15.9959 1.82806 15.8396C1.67178 15.6833 1.58398 15.4713 1.58398 15.2503H13.459C13.6247 15.2503 13.7837 15.1845 13.9009 15.0673C14.0181 14.9501 14.084 14.7911 14.084 14.6253V2.75033C14.084 2.47674 14.0301 2.20583 13.9254 1.95307C13.8207 1.70031 13.6672 1.47064 13.4738 1.27719C13.2803 1.08373 13.0507 0.930274 12.7979 0.825576C12.5451 0.720879 12.2742 0.666992 12.0007 0.666992H2.41732ZM9.91732 9.20866V9.62533C9.91732 10.4587 8.76482 11.0837 7.20898 11.0837C5.65315 11.0837 4.50065 10.4587 4.50065 9.62533V9.20866C4.50065 9.0429 4.5665 8.88393 4.68371 8.76672C4.80092 8.64951 4.95989 8.58366 5.12565 8.58366H9.29232C9.45808 8.58366 9.61705 8.64951 9.73426 8.76672C9.85147 8.88393 9.91732 9.0429 9.91732 9.20866ZM8.66732 6.28783C8.66732 6.6746 8.51367 7.04553 8.24018 7.31902C7.96669 7.59251 7.59576 7.74616 7.20898 7.74616C6.82221 7.74616 6.45128 7.59251 6.17779 7.31902C5.9043 7.04553 5.75065 6.6746 5.75065 6.28783C5.75065 5.48366 6.40315 4.83366 7.20898 4.83366C8.01482 4.83366 8.66732 5.48283 8.66732 6.28783Z" fill="#00629D"/>
</svg>
