<svg width="19" height="18" viewBox="0 0 19 18" fill="none" xmlns="http://www.w3.org/2000/svg">
<path d="M18.587 8.33214L2.08705 0.0821386C1.95772 0.0174636 1.81246 -0.00845025 1.66876 0.00751736C1.52505 0.023485 1.38902 0.0806532 1.27705 0.172138C1.17012 0.261758 1.0903 0.379428 1.04658 0.511921C1.00286 0.644414 0.996958 0.786477 1.02955 0.922138L3.01705 8.24964H11.4995V9.74964H3.01705L0.999547 17.0546C0.968967 17.1679 0.965397 17.2868 0.989125 17.4017C1.01285 17.5167 1.06322 17.6244 1.13617 17.7163C1.20912 17.8082 1.30262 17.8818 1.40915 17.931C1.51568 17.9802 1.63227 18.0037 1.74955 17.9996C1.86695 17.9989 1.98256 17.9707 2.08705 17.9171L18.587 9.66714C18.7099 9.6042 18.813 9.50858 18.885 9.39081C18.957 9.27303 18.9951 9.13767 18.9951 8.99964C18.9951 8.8616 18.957 8.72625 18.885 8.60847C18.813 8.4907 18.7099 8.39508 18.587 8.33214Z" fill="white"/>
</svg>
