<svg width="13" height="14" viewBox="0 0 13 14" fill="none" xmlns="http://www.w3.org/2000/svg">
<path d="M2.33333 6.33301L6 0.333008L9.66667 6.33301H2.33333ZM9.66667 13.6663C8.83333 13.6663 8.12489 13.3746 7.54133 12.791C6.95778 12.2075 6.66622 11.4992 6.66667 10.6663C6.66667 9.83301 6.95845 9.12456 7.542 8.54101C8.12556 7.95745 8.83378 7.6659 9.66667 7.66634C10.5 7.66634 11.2084 7.95812 11.792 8.54167C12.3756 9.12523 12.6671 9.83345 12.6667 10.6663C12.6667 11.4997 12.3749 12.2081 11.7913 12.7917C11.2078 13.3752 10.4996 13.6668 9.66667 13.6663ZM0 13.333V7.99967H5.33333V13.333H0Z" fill="#00629D"/>
</svg>
