<svg width="20" height="20" viewBox="0 0 20 20" fill="none" xmlns="http://www.w3.org/2000/svg">
<path d="M10.9052 17.8237L11.3568 17.0603C11.7068 16.4687 11.8818 16.172 12.1635 16.0087C12.4452 15.8445 12.7993 15.8387 13.5077 15.8262C14.5543 15.8087 15.2102 15.7445 15.7602 15.5162C16.2657 15.3068 16.725 14.9998 17.112 14.6129C17.4989 14.226 17.8058 13.7667 18.0152 13.2612C18.3327 12.4962 18.3327 11.5253 18.3327 9.58366V8.75033L18.3318 7.87699C18.331 7.52116 17.8952 7.31949 17.5802 7.48533C16.8717 7.85919 16.0621 7.99634 15.27 7.87668C14.4779 7.75702 13.7449 7.38685 13.1784 6.8204C12.612 6.25394 12.2418 5.52097 12.1222 4.72887C12.0025 3.93676 12.1397 3.12716 12.5135 2.41866C12.6802 2.10449 12.4793 1.66866 12.1227 1.66866C11.8477 1.66699 11.5577 1.66699 11.2493 1.66699H8.74935C6.02185 1.66699 4.65768 1.66699 3.65602 2.28116C3.09535 2.62453 2.62389 3.0957 2.28018 3.65616C1.66602 4.65866 1.66602 6.02366 1.66602 8.75033V9.58366C1.66602 11.5253 1.66602 12.4962 1.98268 13.2612C2.19217 13.7668 2.49922 14.2261 2.88628 14.6131C3.27334 15 3.73283 15.3069 4.23852 15.5162C4.78852 15.7445 5.44435 15.8078 6.49102 15.8262C7.19935 15.8387 7.55352 15.8445 7.83518 16.0087C8.11602 16.172 8.29185 16.4678 8.64185 17.0603L9.09352 17.8237C9.49602 18.5037 10.5018 18.5037 10.9052 17.8237Z" fill="#00629D"/>
<path d="M15.832 6.66699C17.2127 6.66699 18.332 5.5477 18.332 4.16699C18.332 2.78628 17.2127 1.66699 15.832 1.66699C14.4513 1.66699 13.332 2.78628 13.332 4.16699C13.332 5.5477 14.4513 6.66699 15.832 6.66699Z" fill="#00629D"/>
</svg>
