<svg width="209" height="246" viewBox="0 0 209 246" fill="none" xmlns="http://www.w3.org/2000/svg">
<g clip-path="url(#clip0_17_39)">
<path d="M86.7747 201.907C90.9333 197.671 96.9598 195.242 103.309 195.242L103.554 195.243C107.736 195.244 111.843 194.149 115.456 192.068L115.832 191.852L115.529 191.544C113.89 189.869 112.521 187.955 111.471 185.869C112.217 186.556 113.106 187.072 114.077 187.382C115.047 187.692 116.075 187.787 117.087 187.661C118.155 187.535 119.18 187.172 120.086 186.599C120.992 186.026 121.755 185.257 122.317 184.351C124.536 180.795 127.182 175.75 127.182 171.906C127.178 168.657 126.489 165.444 125.159 162.472C123.829 159.501 121.886 156.835 119.456 154.646C117.917 153.276 116.687 151.6 115.848 149.729C115.009 147.858 114.578 145.833 114.584 143.786L114.585 143.495C114.586 140.8 114.252 138.115 113.593 135.501C112.933 132.886 113.526 135.237 113.526 135.237C113.526 135.237 115.024 135.187 113.25 135.246C111.477 135.306 109.702 135.159 107.963 134.809C109.595 134.611 111.19 134.192 112.705 133.563C112.705 133.563 112.911 133.531 113.001 133.445C113.224 133.231 112.705 132.711 112.705 132.711C105.783 128.478 90.3538 131.105 81.2848 110.611C73.931 93.9934 47.9844 125.362 47.9844 143.495C47.9844 145.345 49.8383 147.79 48.4505 149.013C33.4482 162.232 43.7996 170.72 47.0632 179.262C47.8375 181.289 46.1585 183.513 46.1585 185.706C46.1585 186.078 46.1681 186.462 46.1871 186.847L46.216 187.44L46.7162 187.111C47.7058 186.471 48.623 185.728 49.4523 184.894C48.592 186.85 48.1865 188.971 48.2658 191.102C48.345 193.232 48.907 195.318 49.9103 197.206C51.4825 200.137 53.0035 202.235 54.4311 203.442C59.0041 207.307 64.8993 209.301 70.9113 209.016C76.9233 208.731 82.5979 206.188 86.7747 201.907Z" fill="#E6E6E6"/>
<path d="M60.3623 246C60.2601 246 60.1613 245.964 60.0841 245.897C60.007 245.831 59.9566 245.74 59.9422 245.64C59.9241 245.514 58.1558 232.918 59.7439 216.178C61.2106 200.718 65.9205 178.449 80.0297 160.161C80.0635 160.117 80.1058 160.08 80.154 160.052C80.2023 160.024 80.2556 160.006 80.3109 159.999C80.3663 159.992 80.4225 159.995 80.4765 160.009C80.5305 160.023 80.5812 160.048 80.6256 160.081C80.67 160.114 80.7073 160.156 80.7354 160.204C80.7635 160.252 80.7817 160.304 80.7892 160.359C80.7966 160.414 80.7931 160.469 80.7788 160.522C80.7644 160.576 80.7396 160.626 80.7057 160.67C66.7184 178.8 62.0464 200.905 60.5901 216.256C59.0112 232.899 60.7656 245.397 60.7835 245.521C60.7921 245.581 60.7875 245.642 60.7703 245.699C60.753 245.757 60.7234 245.81 60.6835 245.856C60.6435 245.901 60.5942 245.937 60.5388 245.962C60.4834 245.987 60.4232 246 60.3623 246Z" fill="#323232"/>
<path d="M71.8765 185.957C71.7867 185.957 71.6992 185.929 71.6266 185.877C71.5539 185.825 71.4999 185.752 71.4721 185.668C71.4443 185.583 71.4443 185.492 71.472 185.408C71.4997 185.324 71.5537 185.25 71.6263 185.198C75.6466 182.51 79.9897 180.327 84.5555 178.698C91.6888 176.118 102.536 173.78 113.703 177.29C113.756 177.307 113.806 177.334 113.849 177.369C113.891 177.405 113.927 177.448 113.952 177.497C113.978 177.546 113.994 177.6 113.998 177.655C114.003 177.71 113.997 177.765 113.98 177.818C113.963 177.87 113.936 177.919 113.9 177.961C113.864 178.003 113.82 178.038 113.77 178.063C113.72 178.089 113.666 178.104 113.61 178.109C113.555 178.113 113.499 178.107 113.445 178.09C102.507 174.652 91.8565 176.951 84.8477 179.486C80.3553 181.087 76.0819 183.234 72.1259 185.877C72.0535 185.929 71.9661 185.957 71.8765 185.957Z" fill="#323232"/>
<path d="M52.4284 138.116C52.4219 138.028 52.4439 137.94 52.4912 137.864C52.5386 137.789 52.6088 137.73 52.692 137.697C52.7751 137.664 52.8668 137.657 52.954 137.678C53.0411 137.699 53.1192 137.747 53.1771 137.815C56.1808 141.582 58.6987 145.703 60.6728 150.084C63.7912 156.925 66.9338 167.442 64.1931 178.696C64.1801 178.75 64.1566 178.8 64.1238 178.845C64.091 178.889 64.0496 178.927 64.002 178.956C63.9544 178.985 63.9015 179.004 63.8463 179.013C63.7912 179.021 63.7348 179.019 63.6805 179.006C63.6263 178.993 63.5751 178.97 63.5299 178.938C63.4848 178.905 63.4465 178.864 63.4174 178.817C63.3883 178.77 63.3688 178.718 63.3602 178.663C63.3515 178.609 63.3538 178.553 63.3669 178.5C66.0512 167.477 62.9619 157.15 59.8978 150.428C57.9572 146.118 55.4814 142.063 52.5274 138.356C52.4695 138.289 52.4349 138.205 52.4284 138.116Z" fill="#323232"/>
<path d="M195.961 245.555H162.134L161.988 245.295C161.556 244.52 161.138 243.699 160.748 242.856C157.264 235.488 155.791 227.062 154.491 219.627L153.513 214.023C153.394 213.344 153.484 212.646 153.769 212.018C154.055 211.39 154.524 210.86 155.116 210.496C155.708 210.133 156.397 209.952 157.094 209.977C157.79 210.003 158.464 210.233 159.027 210.638C164.168 214.333 169.311 218.024 174.456 221.711C176.404 223.111 178.628 224.732 180.759 226.482C180.965 225.496 181.18 224.507 181.395 223.532C181.543 222.859 181.891 222.244 182.395 221.768C182.899 221.291 183.535 220.974 184.223 220.856C184.91 220.739 185.618 220.827 186.254 221.109C186.891 221.391 187.428 221.854 187.797 222.439L191.754 228.719C194.641 233.305 197.189 237.825 196.67 242.699C196.672 242.759 196.668 242.818 196.656 242.876C196.552 243.677 196.36 244.464 196.082 245.223L195.961 245.555Z" fill="#F0F0F0"/>
<path d="M180.201 114.208L173.672 90.3424C173.393 89.3321 172.722 88.4709 171.805 87.9446C170.889 87.4183 169.799 87.2692 168.772 87.5294C168.24 87.664 167.742 87.9041 167.308 88.235C166.874 88.5659 166.512 88.9807 166.245 89.4542C165.978 89.9276 165.812 90.4497 165.756 90.9888C165.701 91.5278 165.756 92.0724 165.921 92.5893L173.472 117.174L177.422 132.304C176.847 132.738 176.421 133.337 176.202 134.018C175.982 134.7 175.981 135.431 176.198 136.113C176.414 136.796 176.838 137.396 177.412 137.832C177.986 138.268 178.681 138.519 179.405 138.55C180.128 138.582 180.843 138.394 181.454 138.01C182.065 137.626 182.541 137.066 182.818 136.405C183.096 135.745 183.16 135.016 183.004 134.318C182.847 133.62 182.476 132.986 181.942 132.504L180.201 114.208Z" fill="#D27852"/>
<path d="M125.266 109.068L145.101 93.9905C145.94 93.3492 146.49 92.4081 146.632 91.3702C146.774 90.3323 146.497 89.2808 145.861 88.4426C145.532 88.009 145.117 87.6462 144.642 87.3761C144.166 87.1061 143.64 86.9345 143.095 86.8719C142.55 86.8093 141.998 86.857 141.472 87.012C140.946 87.1671 140.458 87.4262 140.037 87.7737L119.919 104.059L107.272 113.446C106.646 113.087 105.924 112.926 105.202 112.987C104.481 113.047 103.796 113.325 103.24 113.784C102.685 114.242 102.285 114.858 102.097 115.548C101.908 116.239 101.939 116.97 102.185 117.642C102.432 118.314 102.882 118.895 103.474 119.306C104.067 119.717 104.773 119.938 105.497 119.938C106.221 119.939 106.927 119.719 107.521 119.31C108.114 118.9 108.565 118.32 108.813 117.648L125.266 109.068Z" fill="#D27852"/>
<path d="M141.433 112.534L140.559 131.82L168.012 125.927C165.675 118.178 164.086 116.856 165.842 111.462L141.433 112.534Z" fill="#D27852"/>
<path d="M158.313 77.1763H149.166L145.237 83.8156L143.365 83.7136C142.45 83.6637 141.534 83.7987 140.673 84.1103C139.812 84.422 139.024 84.9038 138.358 85.5262C137.693 86.1487 137.162 86.8988 136.8 87.7306C136.437 88.5624 136.25 89.4585 136.25 90.3641L138.556 93.8947C138.556 93.8947 134.432 100.994 140.373 104.487C140.373 104.487 139.313 111.068 140.373 110.997C141.433 110.927 143.874 109.587 141.433 110.927C138.992 112.266 139.174 112.446 139.49 112.758L139.806 113.07L165.472 117.326C165.472 117.326 166.223 112.412 166.303 111.535C166.384 110.659 165.842 112.802 166.384 110.659C166.927 108.516 167.74 109.319 166.927 108.516C166.113 107.712 172.199 97.7565 169.698 93.8947L173.707 90.0329C173.707 86.3285 167.683 83.3256 163.933 83.3256H163.452L158.313 77.1763Z" fill="#E6E6E6"/>
<path d="M136.274 238.12H132.571L130.81 224.015L136.274 224.015L136.274 238.12Z" fill="#D27852"/>
<path d="M125.098 243.516C125.1 243.926 125.265 244.318 125.558 244.608C125.851 244.898 126.248 245.062 126.663 245.065H133.633L133.849 244.623L134.835 242.613L135.216 244.623L135.301 245.065H137.93L137.892 244.62L137.191 236.317L136.274 236.261L132.312 236.029L131.339 235.971V238.45C130.6 239.226 124.804 242.159 125.098 243.516Z" fill="#323232"/>
<path d="M191.298 228.542L188.184 230.52L178.977 219.599L183.572 216.68L191.298 228.542Z" fill="#D27852"/>
<path d="M184.856 239.051C185.081 239.395 185.435 239.636 185.841 239.724C186.246 239.811 186.67 239.737 187.02 239.517L192.881 235.793L192.821 235.306L192.549 233.089L193.971 234.575L194.284 234.902L196.495 233.497L196.22 233.143L191.082 226.535L190.281 226.978L186.821 228.9L185.971 229.371L187.329 231.456C187.132 232.503 183.865 238.067 184.856 239.051Z" fill="#323232"/>
<path d="M212.28 245.771L20.7196 246C20.5284 245.999 20.3454 245.905 20.2105 245.739C20.0757 245.573 20 245.348 20 245.114C20 244.88 20.0757 244.656 20.2105 244.49C20.3454 244.324 20.5284 244.23 20.7196 244.229L212.28 244C212.472 244.001 212.655 244.095 212.789 244.261C212.924 244.427 213 244.652 213 244.886C213 245.12 212.924 245.344 212.789 245.51C212.655 245.676 212.472 245.77 212.28 245.771Z" fill="#CACACA"/>
<path d="M167.582 123.749C167.582 123.749 150.033 132.917 140.751 126.662C140.751 126.662 138.721 136.374 137.907 137.178C137.094 137.981 135.797 138.331 136.717 139.228C137.636 140.124 138.148 141.335 136.4 142.873C134.653 144.41 132.91 143.922 134.595 145.506C136.28 147.089 129.5 185.93 129.5 185.93C129.5 185.93 130.585 222.05 129.5 223.143C128.415 224.235 128 225 128.368 225.831C129.771 227.182 129.771 226.134 129.771 227.997V229.861L130.413 231.712H139.219C139.219 231.712 141.344 229.274 139.219 227.157C139.219 227.157 139.866 224.459 140.514 222.472C140.831 221.5 141.162 222 141.162 220.485C140.077 218.342 139.556 218.75 139.545 217.341C139.535 215.931 155.536 160.75 155.536 160.75L157.474 191.292L180.786 224.741L187.648 219.658C187.648 219.658 182.652 212.712 183.82 211.757C184.989 210.802 180.377 209.604 181.831 208.527C183.285 207.45 179.785 206.364 181.104 204.937C182.424 203.509 179.287 199.91 177.469 199.91C175.651 199.91 173.1 193.91 173.1 193.91L176.908 146.517L167.582 123.749Z" fill="#323232"/>
<path d="M148.982 57.6815C148.858 57.8425 147.868 57.7558 146.678 57.5842C144.326 57.2449 144.005 57.6481 142.247 59.2281C139.699 61.5168 141.148 75.4766 139.896 78.5012L139.491 78.7956C140.293 78.6443 141.081 78.4265 141.846 78.1446C142.279 76.7976 142.712 75.4462 143.148 74.1003C143.56 75.1475 143.819 76.2473 143.918 77.3665C144.523 77.1308 145.125 76.5541 147.656 75.7808C148.93 74.9271 158.148 74.0686 159.333 73.693C162.341 63.586 157.494 59.4987 148.982 57.6815Z" fill="#323232"/>
<path d="M152.094 73.2666C156.959 73.2666 160.903 69.3713 160.903 64.5662C160.903 59.761 156.959 55.8657 152.094 55.8657C147.229 55.8657 143.285 59.761 143.285 64.5662C143.285 69.3713 147.229 73.2666 152.094 73.2666Z" fill="#D27852"/>
<path d="M157.64 56.9145C157.144 56.8421 156.666 56.6767 156.232 56.427C156.018 56.2988 155.843 56.1135 155.73 55.8923C155.617 55.671 155.569 55.4228 155.591 55.1758C155.7 54.5577 156.408 54.1885 157.042 54.2262C157.673 54.316 158.273 54.5558 158.79 54.9249C158.733 54.3274 158.475 53.7662 158.056 53.3313C157.637 52.8964 157.083 52.613 156.482 52.5267C157.316 52.4824 158.183 52.4432 158.954 52.76C159.725 53.0768 160.368 53.8613 160.229 54.6747C161.525 54.5097 162.804 55.4019 163.339 56.5798C163.874 57.7578 163.768 59.141 163.341 60.3611C163.298 60.548 163.216 60.7237 163.099 60.8763C162.982 61.029 162.833 61.155 162.663 61.2459C162.226 61.4095 161.757 61.1352 161.379 60.8649C159.404 59.4526 157.606 57.8129 156.024 55.9806" fill="#323232"/>
<path d="M161.481 73.8161C161.107 73.9898 161.302 74.6358 161.012 74.9251C160.886 75.0476 160.734 75.141 160.567 75.1984C160.523 74.6592 160.396 74.1298 160.19 73.6286C160.152 73.5376 160.09 73.4358 159.992 73.4438C159.878 73.4572 159.848 73.6045 159.845 73.7143C159.823 74.2592 159.7 74.7955 159.485 75.2975C159.482 75.3028 159.479 75.3109 159.477 75.3162C159.393 75.3135 159.306 75.3109 159.224 75.3082C158.595 75.2841 157.201 73.6876 156.892 74.2287C157.982 72.3188 159.311 69.4472 159.515 67.2641C159.585 66.807 159.551 66.3402 159.414 65.8979C159.343 65.6779 159.209 65.4827 159.029 65.3355C158.849 65.1884 158.629 65.0953 158.397 65.0675C158.283 65.0624 158.168 65.0823 158.063 65.1258C157.957 65.1694 157.862 65.2355 157.785 65.3195C157.708 65.4034 157.651 65.5031 157.617 65.6115C157.584 65.7198 157.575 65.8341 157.592 65.9462L157.434 65.9247C155.975 64.7515 157.234 62.713 155.536 61.9067C154.961 61.6335 151.441 62.5469 150.82 62.3862C150.806 61.74 150.673 61.1017 150.426 60.5031C150.388 60.412 150.326 60.3102 150.228 60.3182C150.114 60.3316 150.085 60.4789 150.082 60.5888C150.059 61.1336 149.937 61.6699 149.721 62.1719C148.861 62.0513 147.985 62.0968 147.142 62.3058C146.399 62.4987 145.694 62.8308 144.948 63.0076C144.579 63.1192 144.191 63.1554 143.808 63.1139C143.425 63.0725 143.054 62.9543 142.718 62.7665C141.772 62.1397 141.607 60.7522 142.078 59.7289C142.42 59.0723 142.882 58.4838 143.44 57.9931C143.866 57.5859 144.308 57.1948 144.75 56.8038C145.146 56.4529 145.542 56.1019 145.938 55.751C146.436 55.2877 146.967 54.8598 147.527 54.4706C148.421 53.8921 149.425 53.5 150.477 53.3185C151.53 53.137 152.609 53.1699 153.648 53.4152C154.896 53.7099 156.564 53.2947 157.706 53.8706C158.302 54.1733 159.623 55.3332 160.147 55.7457C161.486 56.7984 160.58 55.9406 162.045 56.5493C165.539 58.0006 163.994 72.6476 161.481 73.8161Z" fill="#323232"/>
<path d="M63.9454 137.32C94.1167 137.32 118.575 113.162 118.575 83.363C118.575 53.5635 94.1167 29.4062 63.9454 29.4062C33.7741 29.4062 9.31543 53.5635 9.31543 83.363C9.31543 113.162 33.7741 137.32 63.9454 137.32Z" fill="white"/>
<path d="M63.9453 137.858C33.5216 137.858 8.77002 113.412 8.77002 83.363C8.77002 53.3142 33.5216 28.8677 63.9453 28.8677C94.369 28.8677 119.121 53.3142 119.121 83.363C119.121 113.412 94.369 137.858 63.9453 137.858ZM63.9453 29.9449C34.123 29.9449 9.86064 53.9082 9.86064 83.363C9.86064 112.818 34.123 136.781 63.9453 136.781C93.7676 136.781 118.03 112.818 118.03 83.363C118.03 53.9082 93.7676 29.9449 63.9453 29.9449Z" fill="#00439B"/>
<rect x="174.719" y="197.082" width="12.3227" height="21.7663" transform="rotate(-29.5738 174.719 197.082)" fill="white"/>
<path d="M65.7426 111.539C67.8221 110.216 69.9077 108.9 71.9872 107.577C72.9285 106.98 73.8821 106.39 74.7988 105.75C76.9768 104.23 79.0193 102.501 80.8343 100.557C84.4272 96.6997 87.1589 92.1285 88.8877 87.1513C90.2966 83.0846 90.8995 78.7964 90.8995 74.502V66.3133C90.8995 65.212 90.1305 64.2522 89.0907 63.9385C88.3401 63.7108 87.5957 63.477 86.8759 63.1756C87.0728 63.2556 87.2696 63.3417 87.4665 63.4217C86.1807 62.8741 84.9748 62.1728 83.8674 61.3237L84.3657 61.7113C83.2706 60.8623 82.2862 59.8841 81.4372 58.789L81.8248 59.2873C80.9758 58.1799 80.2683 56.9679 79.7207 55.682C79.8007 55.8789 79.8868 56.0758 79.9668 56.2727C79.7822 55.8297 79.61 55.3744 79.4623 54.9191C79.1301 53.8794 78.2011 53.1104 77.0875 53.1104H55.0067C53.9916 53.1104 52.9703 53.0796 51.9552 53.1104H51.9121C50.7924 53.1104 49.8695 53.8794 49.5373 54.9191C49.3896 55.3806 49.2235 55.8297 49.0328 56.2727C49.1128 56.0758 49.1989 55.8789 49.2789 55.682C48.7313 56.9679 48.0238 58.1737 47.1748 59.2873L47.5624 58.789C46.7134 59.8841 45.729 60.8623 44.6339 61.7113L45.1322 61.3237C44.0248 62.1728 42.8128 62.8741 41.5331 63.4217C41.73 63.3417 41.9269 63.2556 42.1237 63.1756C41.3978 63.477 40.6595 63.7108 39.9089 63.9385C38.8691 64.2522 38.1001 65.212 38.1001 66.3133V73.733C38.1001 75.0373 38.1001 76.3416 38.1924 77.6459C38.3893 80.2976 38.8384 82.9431 39.5828 85.4963C41.0594 90.5658 43.6187 95.2354 47.0148 99.2652C49.6542 102.397 52.835 104.932 56.2803 107.116L63.0909 111.435C63.1463 111.471 63.2078 111.508 63.2632 111.545C64.3521 112.234 66.0256 111.81 66.6285 110.659C67.2684 109.441 66.9054 108.032 65.7426 107.294C64.6352 106.593 63.5277 105.891 62.4265 105.19C61.0114 104.292 59.6025 103.4 58.1875 102.501C57.197 101.874 56.2311 101.203 55.2959 100.49L55.7942 100.877C53.4687 99.0745 51.3769 96.9827 49.5742 94.6571L49.9618 95.1555C48.1284 92.7745 46.6026 90.1659 45.4275 87.3974C45.5075 87.5942 45.5937 87.7911 45.6736 87.988C44.4739 85.1394 43.6557 82.1494 43.2435 79.0855C43.2742 79.3009 43.305 79.5224 43.3296 79.7377C43.065 77.7443 43.022 75.751 43.022 73.7515V66.3379C42.419 67.1315 41.8161 67.919 41.2132 68.7127C43.3357 68.0728 45.3906 67.2238 47.1933 65.9257C49.3281 64.3876 51.1492 62.4927 52.5027 60.2286C53.2472 58.9858 53.8439 57.6323 54.2869 56.2542C53.4933 56.8571 52.7058 57.4601 51.9121 58.063H73.9929C75.008 58.063 76.0293 58.0876 77.0444 58.063H77.0875C76.2938 57.4601 75.5063 56.8571 74.7127 56.2542C76.2569 61.0715 79.7638 65.2612 84.3657 67.4269C85.4731 67.9498 86.6113 68.3559 87.7864 68.7127C87.1835 67.919 86.5806 67.1315 85.9776 66.3379V75.0619C85.9776 76.6246 85.873 78.1873 85.67 79.7377C85.7008 79.5224 85.7315 79.3009 85.7561 79.0855C85.3378 82.1433 84.5195 85.1394 83.326 87.988C83.406 87.7911 83.4921 87.5942 83.5721 87.3974C82.397 90.1659 80.8712 92.7745 79.0378 95.1555L79.4254 94.6571C77.6227 96.9827 75.531 99.0745 73.2054 100.877L73.7037 100.49C72.3256 101.554 70.8613 102.471 69.3971 103.406C67.7729 104.439 66.1486 105.467 64.5244 106.5C64.1061 106.765 63.6815 107.036 63.2632 107.3C62.7279 107.639 62.3034 108.149 62.1312 108.771C61.9712 109.361 62.045 110.143 62.3772 110.666C63.0786 111.748 64.5798 112.277 65.7426 111.539Z" fill="#00439B"/>
<path d="M51.9617 82.3709L58.2802 88.6894L59.1784 89.5876C60.1197 90.5289 61.7193 90.5289 62.6606 89.5876L67.5395 84.7088L75.2606 76.9876L77.0387 75.2096C77.9492 74.299 78.0169 72.6256 77.0387 71.7273C76.0543 70.8229 74.5285 70.7553 73.5564 71.7273L68.6776 76.6062L60.9564 84.3273L59.1784 86.1054H62.6606L56.3422 79.7869L55.4439 78.8887C54.5334 77.9781 52.86 77.9104 51.9617 78.8887C51.0573 79.873 50.9896 81.3927 51.9617 82.3709Z" fill="#00439B"/>
<rect x="37.9736" y="52.6577" width="54.7105" height="11.6053" fill="white"/>
<rect x="37.5737" y="64.9585" width="30.0737" height="4.97368" rx="2.48684" transform="rotate(-22.4233 37.5737 64.9585)" fill="#00439B"/>
<rect width="30.6462" height="4.97368" rx="2.48684" transform="matrix(-0.924391 -0.381446 -0.381446 0.924391 91.6191 64.9209)" fill="#00439B"/>
<path d="M139.612 217.546C139.629 216.557 140.445 215.769 141.434 215.787L143.147 215.817L142.865 231.969L139.361 231.907L139.612 217.546Z" fill="white"/>
<rect x="122.999" y="217" width="6.69922" height="12" fill="white"/>
</g>
<defs>
<clipPath id="clip0_17_39">
<rect width="209" height="246" fill="white"/>
</clipPath>
</defs>
</svg>
