<svg width="106" height="112" viewBox="0 0 106 112" fill="none" xmlns="http://www.w3.org/2000/svg">
<path d="M104.5 56C104.5 86.1784 81.3659 110.5 53 110.5C24.6341 110.5 1.5 86.1784 1.5 56C1.5 25.8216 24.6341 1.5 53 1.5C81.3659 1.5 104.5 25.8216 104.5 56Z" fill="#D9E2FF" stroke="#00439B" stroke-width="3"/>
<path d="M45.2428 69.2322C44.2556 68.2451 44.2556 66.6446 45.2428 65.6574L64.1376 46.7626C65.1247 45.7755 66.7252 45.7755 67.7124 46.7626C68.6995 47.7498 68.6995 49.3503 67.7124 50.3375L48.8176 69.2322C47.8304 70.2194 46.2299 70.2194 45.2428 69.2322Z" fill="#D9D9D9"/>
<path d="M45.2428 69.2322C44.2556 68.2451 44.2556 66.6446 45.2428 65.6574L64.1376 46.7626C65.1247 45.7755 66.7252 45.7755 67.7124 46.7626C68.6995 47.7498 68.6995 49.3503 67.7124 50.3375L48.8176 69.2322C47.8304 70.2194 46.2299 70.2194 45.2428 69.2322Z" fill="#00439B"/>
<rect x="40.1171" y="57.3232" width="14.3973" height="4.80558" rx="2.40279" transform="rotate(45 40.1171 57.3232)" fill="#D9D9D9"/>
<rect x="40.1171" y="57.3232" width="14.3973" height="4.80558" rx="2.40279" transform="rotate(45 40.1171 57.3232)" fill="#00439B"/>
</svg>
